<svg xmlns="http://www.w3.org/2000/svg" version="1.1" xmlns:xlink="http://www.w3.org/1999/xlink" xmlns:svgjs="http://svgjs.dev/svgjs" width="1000" height="143" viewBox="0 0 1000 143"><g transform="matrix(1,0,0,1,-0.6060606060606233,0.05775333769656754)"><svg viewBox="0 0 396 57" data-background-color="#0023ff" preserveAspectRatio="xMidYMid meet" height="143" width="1000" xmlns="http://www.w3.org/2000/svg" xmlns:xlink="http://www.w3.org/1999/xlink"><g id="tight-bounds" transform="matrix(1,0,0,1,0.2400000000000091,-0.02302056117974871)"><svg viewBox="0 0 395.52 57.04604112235952" height="57.04604112235952" width="395.52"><g><svg viewBox="0 0 521.859373023153 75.26803007071082" height="57.04604112235952" width="395.52"><g transform="matrix(1,0,0,1,126.33937302315297,10.402455675474506)"><svg viewBox="0 0 395.52 54.46311871976181" height="54.46311871976181" width="395.52"><g id="textblocktransform"><svg viewBox="0 0 395.52 54.46311871976181" height="54.46311871976181" width="395.52" id="textblock"><g><svg viewBox="0 0 395.52 54.46311871976181" height="54.46311871976181" width="395.52"><g transform="matrix(1,0,0,1,0,0)"><svg width="395.52" viewBox="4.45 -36.5 268.68 37" height="54.46311871976181" data-palette-color="#f8fafc"><path d="M7.95 0L4.45 0 4.45-35.5 19.15-35.5Q21.45-35.5 23.38-34.55 25.3-33.6 26.7-31.98 28.1-30.35 28.9-28.38 29.7-26.4 29.7-24.35L29.7-24.35Q29.7-21.45 28.43-18.88 27.15-16.3 24.85-14.7 22.55-13.1 19.45-13.1L19.45-13.1 7.95-13.1 7.95 0ZM7.95-32.4L7.95-16.2 19.3-16.2Q21.4-16.2 22.95-17.35 24.5-18.5 25.35-20.35 26.2-22.2 26.2-24.35L26.2-24.35Q26.2-26.55 25.2-28.4 24.2-30.25 22.58-31.33 20.95-32.4 19-32.4L19-32.4 7.95-32.4ZM45.6 0.5L45.6 0.5Q42.8 0.5 40.4-0.58 38-1.65 36.25-3.53 34.5-5.4 33.52-7.85 32.55-10.3 32.55-13.1L32.55-13.1Q32.55-16.75 34.22-19.8 35.9-22.85 38.85-24.68 41.8-26.5 45.55-26.5L45.55-26.5Q49.4-26.5 52.27-24.65 55.15-22.8 56.8-19.78 58.45-16.75 58.45-13.15L58.45-13.15Q58.45-12.75 58.45-12.38 58.45-12 58.4-11.8L58.4-11.8 36.1-11.8Q36.35-9 37.67-6.83 39-4.65 41.12-3.38 43.25-2.1 45.75-2.1L45.75-2.1Q48.3-2.1 50.57-3.4 52.85-4.7 53.75-6.8L53.75-6.8 56.7-6Q55.9-4.15 54.25-2.65 52.6-1.15 50.37-0.33 48.15 0.5 45.6 0.5ZM36-14.25L36-14.25 55.25-14.25Q55.05-17.1 53.72-19.25 52.4-21.4 50.27-22.63 48.15-23.85 45.6-23.85L45.6-23.85Q43.05-23.85 40.95-22.63 38.85-21.4 37.52-19.23 36.2-17.05 36-14.25ZM61.6-7.5L61.6-7.5Q61.6-9.95 63-11.73 64.4-13.5 66.87-14.48 69.35-15.45 72.6-15.45L72.6-15.45Q74.5-15.45 76.55-15.15 78.6-14.85 80.2-14.25L80.2-14.25 80.2-16.45Q80.2-19.75 78.25-21.7 76.3-23.65 72.85-23.65L72.85-23.65Q70.75-23.65 68.72-22.88 66.7-22.1 64.5-20.6L64.5-20.6 63.2-23Q65.75-24.75 68.2-25.63 70.65-26.5 73.2-26.5L73.2-26.5Q78-26.5 80.8-23.75 83.6-21 83.6-16.15L83.6-16.15 83.6-4.1Q83.6-3.4 83.9-3.08 84.2-2.75 84.85-2.7L84.85-2.7 84.85 0Q84.3 0.05 83.9 0.1 83.5 0.15 83.3 0.1L83.3 0.1Q82.05 0.05 81.4-0.7 80.75-1.45 80.7-2.3L80.7-2.3 80.65-4.2Q78.9-1.95 76.1-0.73 73.3 0.5 70.4 0.5L70.4 0.5Q67.9 0.5 65.87-0.58 63.85-1.65 62.72-3.48 61.6-5.3 61.6-7.5ZM79.05-5.5L79.05-5.5Q79.6-6.2 79.9-6.85 80.2-7.5 80.2-8L80.2-8 80.2-11.8Q78.5-12.45 76.67-12.8 74.85-13.15 73-13.15L73-13.15Q69.35-13.15 67.1-11.7 64.85-10.25 64.85-7.75L64.85-7.75Q64.85-6.3 65.6-5.03 66.35-3.75 67.8-2.93 69.25-2.1 71.2-2.1L71.2-2.1Q73.65-2.1 75.77-3.05 77.9-4 79.05-5.5ZM113.24 0L109.54 0 99.89-13.35 94.34-8.15 94.34 0 90.94 0 90.94-36.5 94.34-36.5 94.34-11.8 109.09-26 112.84-26 102.19-15.35 113.24 0ZM134.39 0L130.89 0 130.89-35.5 154.19-35.5 154.19-32.4 134.39-32.4 134.39-19.35 151.09-19.35 151.09-16.45 134.39-16.45 134.39 0ZM163.04 0L159.64 0 159.64-26.05 163.04-26.05 163.04 0ZM163.04-31.5L159.64-31.5 159.64-36.5 163.04-36.5 163.04-31.5ZM192.43-15.25L192.43 0 189.03 0 189.03-14.55Q189.03-19.15 187.68-21.28 186.33-23.4 183.43-23.4L183.43-23.4Q181.43-23.4 179.48-22.43 177.53-21.45 176.06-19.78 174.58-18.1 173.93-15.95L173.93-15.95 173.93 0 170.53 0 170.53-26.05 173.63-26.05 173.63-20.15Q174.68-22.05 176.38-23.48 178.08-24.9 180.23-25.7 182.38-26.5 184.68-26.5L184.68-26.5Q186.83-26.5 188.33-25.7 189.83-24.9 190.73-23.43 191.63-21.95 192.03-19.88 192.43-17.8 192.43-15.25L192.43-15.25ZM197.93-12.95L197.93-12.95Q197.93-16.65 199.46-19.73 200.98-22.8 203.68-24.65 206.38-26.5 209.83-26.5L209.83-26.5Q213.08-26.5 215.66-24.78 218.23-23.05 219.68-20.6L219.68-20.6 219.68-36.5 223.08-36.5 223.08-4.1Q223.08-3.4 223.38-3.08 223.68-2.75 224.28-2.7L224.28-2.7 224.28 0Q223.28 0.15 222.73 0.1L222.73 0.1Q221.68 0.05 220.88-0.75 220.08-1.55 220.08-2.5L220.08-2.5 220.08-5.05Q218.53-2.5 215.88-1 213.23 0.5 210.38 0.5L210.38 0.5Q207.68 0.5 205.41-0.6 203.13-1.7 201.46-3.6 199.78-5.5 198.86-7.93 197.93-10.35 197.93-12.95ZM219.68-8.95L219.68-8.95 219.68-17Q219.03-18.8 217.58-20.28 216.13-21.75 214.31-22.63 212.48-23.5 210.68-23.5L210.68-23.5Q208.58-23.5 206.88-22.63 205.18-21.75 203.96-20.25 202.73-18.75 202.08-16.85 201.43-14.95 201.43-12.95L201.43-12.95Q201.43-10.85 202.16-8.95 202.88-7.05 204.23-5.58 205.58-4.1 207.33-3.3 209.08-2.5 211.13-2.5L211.13-2.5Q212.43-2.5 213.83-3 215.23-3.5 216.51-4.38 217.78-5.25 218.63-6.45 219.48-7.65 219.68-8.95ZM242.03 0.5L242.03 0.5Q239.23 0.5 236.83-0.58 234.43-1.65 232.68-3.53 230.93-5.4 229.95-7.85 228.98-10.3 228.98-13.1L228.98-13.1Q228.98-16.75 230.65-19.8 232.33-22.85 235.28-24.68 238.23-26.5 241.98-26.5L241.98-26.5Q245.83-26.5 248.7-24.65 251.58-22.8 253.23-19.78 254.88-16.75 254.88-13.15L254.88-13.15Q254.88-12.75 254.88-12.38 254.88-12 254.83-11.8L254.83-11.8 232.53-11.8Q232.78-9 234.1-6.83 235.43-4.65 237.55-3.38 239.68-2.1 242.18-2.1L242.18-2.1Q244.73-2.1 247-3.4 249.28-4.7 250.18-6.8L250.18-6.8 253.13-6Q252.33-4.15 250.68-2.65 249.03-1.15 246.8-0.33 244.58 0.5 242.03 0.5ZM232.43-14.25L232.43-14.25 251.68-14.25Q251.48-17.1 250.15-19.25 248.83-21.4 246.7-22.63 244.58-23.85 242.03-23.85L242.03-23.85Q239.48-23.85 237.38-22.63 235.28-21.4 233.95-19.23 232.63-17.05 232.43-14.25ZM273.13-26.15L273.13-23.05Q269.73-22.95 267.15-21.15 264.58-19.35 263.53-16.2L263.53-16.2 263.53 0 260.13 0 260.13-26.05 263.33-26.05 263.33-19.8Q264.68-22.55 266.9-24.25 269.13-25.95 271.63-26.15L271.63-26.15Q272.13-26.2 272.5-26.2 272.88-26.2 273.13-26.15L273.13-26.15Z" opacity="1" transform="matrix(1,0,0,1,0,0)" fill="#f8fafc" class="wordmark-text-0" data-fill-palette-color="primary" id="text-0"></path></svg></g></svg></g></svg></g></svg></g><g><svg viewBox="0 0 113.48193780826648 75.26803007071082" height="75.26803007071082" width="113.48193780826648"><g><svg xmlns="http://www.w3.org/2000/svg" xmlns:xlink="http://www.w3.org/1999/xlink" version="1.1" x="0" y="0" viewBox="0 14.082000000000008 100 66.326" enable-background="new 0 0 100 100" xml:space="preserve" height="75.26803007071082" width="113.48193780826648" class="icon-icon-0" data-fill-palette-color="accent" id="icon-0"><path fill="#f8fafc" d="M0 80.408l40.816-66.326 30.803 45.911-9.555 9.378 1.201 1.854 18.367-18.367L100 80.408H0zM40.985 20.207L27.208 42.271l5.934-3.629 2.108 10.983 4.265-13.435 7.404 13.189 0.588-11.081 11.031 9.023L40.985 20.207z" data-fill-palette-color="accent"></path></svg></g></svg></g></svg></g><defs></defs></svg><rect width="395.52" height="57.04604112235952" fill="none" stroke="none" visibility="hidden"></rect></g></svg></g></svg>