<?xml version="1.0" encoding="UTF-8" standalone="no"?>
<!-- Created with Inkscape (http://www.inkscape.org/) -->

<svg
   version="1.0"
   width="62.999817"
   height="63.053391"
   id="svg2"
   inkscape:version="1.1.1 (3bf5ae0d25, 2021-09-20)"
   sodipodi:docname="Pictogram_Tow_Lift_0.svg"
   xmlns:inkscape="http://www.inkscape.org/namespaces/inkscape"
   xmlns:sodipodi="http://sodipodi.sourceforge.net/DTD/sodipodi-0.dtd"
   xmlns="http://www.w3.org/2000/svg"
   xmlns:svg="http://www.w3.org/2000/svg"
   xmlns:rdf="http://www.w3.org/1999/02/22-rdf-syntax-ns#"
   xmlns:cc="http://creativecommons.org/ns#"
   xmlns:dc="http://purl.org/dc/elements/1.1/">
  <metadata
     id="metadata2908">
    <rdf:RDF>
      <cc:Work
         rdf:about="">
        <dc:format>image/svg+xml</dc:format>
        <dc:type
           rdf:resource="http://purl.org/dc/dcmitype/StillImage" />
      </cc:Work>
    </rdf:RDF>
  </metadata>
  <sodipodi:namedview
     pagecolor="#ffffff"
     bordercolor="#666666"
     borderopacity="1"
     objecttolerance="10"
     gridtolerance="10"
     guidetolerance="10"
     inkscape:pageopacity="0"
     inkscape:pageshadow="2"
     inkscape:window-width="1680"
     inkscape:window-height="1002"
     id="namedview2906"
     showgrid="false"
     inkscape:zoom="5.2932031"
     inkscape:cx="-3.4950482"
     inkscape:cy="36.272933"
     inkscape:window-x="0"
     inkscape:window-y="0"
     inkscape:window-maximized="0"
     inkscape:current-layer="svg2"
     inkscape:pagecheckerboard="0" />
  <defs
     id="defs4">
    <inkscape:perspective
       sodipodi:type="inkscape:persp3d"
       inkscape:vp_x="0 : 31.526695 : 1"
       inkscape:vp_y="0 : 1000 : 0"
       inkscape:vp_z="62.999817 : 31.526695 : 1"
       inkscape:persp3d-origin="31.499908 : 21.017797 : 1"
       id="perspective2910" />
  </defs>
  <g
     transform="translate(-465.643, -232.264)"
     id="layer1">
    <!--<g
       style="font-size:14px;font-style:normal;font-weight:normal;fill:#000000;fill-opacity:1;stroke:none;font-family:Bitstream Vera Sans"
       id="flowRoot2455" />-->
    <g
       transform="matrix(2.07162, 0, 0, 2.07162, 221.743, 576.398)"
       id="g6613">
      <path
         d="M 0.49666329,0.92178989 L 0.49582996,0.92137323 L 0.49624662,0.92137323 C 0.49041333,0.91472397 0.48708002,0.90678999 0.48708002,0.89847407 L 0.48749668,0.89847407 L 0.48708002,0.67137483 L 0.32583105,0.72595782 L 0.32583105,0.7122079 L 0.66166223,0.59845863 L 0.66166223,0.61264257 L 0.50082993,0.66679153 L 0.50082993,0.89137342 L 0.50124659,0.89137342 C 0.50082993,0.90678999 0.51291318,0.91930727 0.52832975,0.91930727 L 0.52874642,0.91930727 L 0.59916263,0.91930727 L 0.59916263,0.93303982 L 0.52291312,0.93303982 L 0.52332978,0.93303982 C 0.51291318,0.93303982 0.50291325,0.92972387 0.49666329,0.92178989 L 0.49707995,0.92178989 L 0.49666329,0.92178989 z"
         id="path68"
         style="font-style: normal; font-variant: normal; font-weight: normal; font-stretch: normal; letter-spacing: normal; word-spacing: normal; text-anchor: start; fill: rgb(0, 0, 0); fill-opacity: 1; stroke: rgb(0, 0, 0); stroke-width: 0pt; stroke-linecap: round; stroke-linejoin: round; stroke-miterlimit: 10.433; stroke-dasharray: none; stroke-dashoffset: 0pt; stroke-opacity: 1;" />
      <path
         d="M 0.48874667,1.0172129 L 0.71916186,0.97678954 L 0.71957853,0.97678954 C 0.72832847,0.97514025 0.7349951,0.96972362 0.74207838,0.96262297 C 0.74874501,0.95095637 0.75124499,0.96014034 0.74874501,0.96680697 C 0.74666169,0.97928953 0.73624509,0.98803947 0.72416183,0.99012279 L 0.7245785,0.99012279 L 0.49124666,1.0313795 L 0.48874667,1.0172129 L 0.48916334,1.0172129"
         id="path70"
         style="font-style: normal; font-variant: normal; font-weight: normal; font-stretch: normal; letter-spacing: normal; word-spacing: normal; text-anchor: start; fill: rgb(0, 0, 0); fill-opacity: 1; stroke: rgb(0, 0, 0); stroke-width: 0pt; stroke-linecap: round; stroke-linejoin: round; stroke-miterlimit: 10.433; stroke-dasharray: none; stroke-dashoffset: 0pt; stroke-opacity: 1;" />
      <path
         d="M 0.56874616,0.87804017 L 0.62374581,0.88179015 L 0.62416247,0.88179015 C 0.63249575,0.88264084 0.63916238,0.88970677 0.63874571,0.89887337 L 0.63916238,0.89887337 L 0.63416241,0.98637281 L 0.61249588,0.98637281 L 0.60832924,0.91264065 L 0.52916308,0.91264065 L 0.52957974,0.91264065 C 0.52041314,0.91264065 0.50957987,0.90889067 0.50957987,0.89847407 L 0.50999654,0.89847407 L 0.50916321,0.87345687 L 0.50916321,0.80512397 L 0.50957987,0.80512397 C 0.50916321,0.78804075 0.52499644,0.77639152 0.54124634,0.77679082 L 0.541663,0.77679082 L 0.54416298,0.77679082 L 0.54457965,0.77679082 C 0.55916289,0.77722485 0.57416279,0.78720742 0.57332946,0.80304065 L 0.57374613,0.80304065 L 0.56874616,0.87804017 L 0.56916282,0.87804017"
         id="path72"
         style="font-style: normal; font-variant: normal; font-weight: normal; font-stretch: normal; letter-spacing: normal; word-spacing: normal; text-anchor: start; fill: rgb(0, 0, 0); fill-opacity: 1; stroke: rgb(0, 0, 0); stroke-width: 0pt; stroke-linecap: round; stroke-linejoin: round; stroke-miterlimit: 10.433; stroke-dasharray: none; stroke-dashoffset: 0pt; stroke-opacity: 1;" />
      <path
         d="M 0.541663,0.71554122 L 0.54305188,0.71557594 L 0.54444076,0.7156801 L 0.54579492,0.71585371 L 0.54713171,0.71607941 L 0.54843379,0.71637454 L 0.5497185,0.71672176 L 0.55098586,0.71713843 L 0.55221849,0.71760717 L 0.5534164,0.718128 L 0.55457958,0.71870092 L 0.55572541,0.71934327 L 0.55681915,0.72002035 L 0.55787817,0.72076688 L 0.55890247,0.72154812 L 0.55989205,0.72238145 L 0.56082954,0.7232495 L 0.56171496,0.72416963 L 0.56256564,0.72514185 L 0.56338161,0.72614879 L 0.56412813,0.72719045 L 0.56482257,0.72826683 L 0.56548229,0.72937793 L 0.56607257,0.73054112 L 0.56662812,0.73172167 L 0.56709687,0.73293694 L 0.56753089,0.73418693 L 0.56789547,0.73545428 L 0.56819061,0.73675636 L 0.56843366,0.73809315 L 0.56860727,0.73944731 L 0.56871144,0.74081883 L 0.56874616,0.74222507 C 0.56874616,0.75679095 0.5566629,0.76889157 0.541663,0.76889157 C 0.52707976,0.76889157 0.5149965,0.75679095 0.5149965,0.74222507 C 0.5149965,0.72722517 0.52707976,0.71554122 0.541663,0.71554122 L 0.54207966,0.71554122 L 0.541663,0.71554122 z"
         id="path74"
         style="font-style: normal; font-variant: normal; font-weight: normal; font-stretch: normal; letter-spacing: normal; word-spacing: normal; text-anchor: start; fill: rgb(0, 0, 0); fill-opacity: 1; stroke: rgb(0, 0, 0); stroke-width: 0pt; stroke-linecap: round; stroke-linejoin: round; stroke-miterlimit: 10.433; stroke-dasharray: none; stroke-dashoffset: 0pt; stroke-opacity: 1;" />
      <path
         d="M 0.51666316,0.58889272 L 0.51789579,0.58891008 L 0.51912842,0.58901425 L 0.52034369,0.5891705 L 0.5215416,0.58937883 L 0.52272215,0.58963924 L 0.52388534,0.5899691 L 0.5250138,0.59035104 L 0.5261249,0.59078507 L 0.52721865,0.59127118 L 0.52826031,0.59180937 L 0.52930197,0.59239964 L 0.53029154,0.593042 L 0.53126376,0.59371908 L 0.53220126,0.59444824 L 0.53308667,0.59521212 L 0.53395472,0.59601073 L 0.53477068,0.59686142 L 0.53555193,0.59776419 L 0.53628109,0.59868432 L 0.53697553,0.59963918 L 0.53763525,0.60064612 L 0.53822552,0.60167042 L 0.53878107,0.60272944 L 0.53928454,0.60382318 L 0.53971857,0.60495164 L 0.54011787,0.60609747 L 0.54044773,0.60726066 L 0.54072551,0.60845857 L 0.5409512,0.6096912 L 0.54110745,0.61092383 L 0.54121161,0.61219118 L 0.54124634,0.6134759 C 0.54124634,0.62680914 0.52999641,0.63805907 0.51666316,0.63805907 C 0.50291325,0.63805907 0.49207998,0.62680914 0.49207998,0.6134759 C 0.49207998,0.59970862 0.50291325,0.58889272 0.51666316,0.58889272 L 0.51707982,0.58889272 L 0.51666316,0.58889272 z"
         id="path76"
         style="font-style: normal; font-variant: normal; font-weight: normal; font-stretch: normal; letter-spacing: normal; word-spacing: normal; text-anchor: start; fill: rgb(0, 0, 0); fill-opacity: 1; stroke: rgb(0, 0, 0); stroke-width: 0pt; stroke-linecap: round; stroke-linejoin: round; stroke-miterlimit: 10.433; stroke-dasharray: none; stroke-dashoffset: 0pt; stroke-opacity: 1;" />
      <path
         d="M 0.45708021,0.61012522 L 0.45831284,0.61015995 L 0.45954547,0.61026411 L 0.46076074,0.610403 L 0.46195865,0.61062869 L 0.4631392,0.61088911 L 0.46430238,0.61121897 L 0.46543085,0.61160091 L 0.46654195,0.61203493 L 0.46761834,0.61252104 L 0.46867736,0.61305923 L 0.46971902,0.61364951 L 0.47070859,0.61429186 L 0.47168081,0.61496894 L 0.4726183,0.6156981 L 0.47350371,0.61646199 L 0.47437176,0.61726059 L 0.47518773,0.61811128 L 0.47596898,0.61901406 L 0.47669814,0.61993419 L 0.47739258,0.62088904 L 0.4780523,0.62189598 L 0.47864257,0.62292028 L 0.47919812,0.6239793 L 0.47970159,0.62507304 L 0.48013562,0.62620151 L 0.48053492,0.62734734 L 0.48086478,0.62851052 L 0.48114255,0.62970843 L 0.48136825,0.63094106 L 0.4815245,0.63217369 L 0.48162866,0.63344105 L 0.48166338,0.6347084 C 0.48166338,0.64804165 0.47041346,0.65929158 0.45708021,0.65929158 C 0.4433303,0.65929158 0.43249703,0.64804165 0.43249703,0.6347084 C 0.43249703,0.62097585 0.4433303,0.61012522 0.45708021,0.61012522 L 0.45749687,0.61012522 L 0.45708021,0.61012522 z"
         id="path78"
         style="font-style: normal; font-variant: normal; font-weight: normal; font-stretch: normal; letter-spacing: normal; word-spacing: normal; text-anchor: start; fill: rgb(0, 0, 0); fill-opacity: 1; stroke: rgb(0, 0, 0); stroke-width: 0pt; stroke-linecap: round; stroke-linejoin: round; stroke-miterlimit: 10.433; stroke-dasharray: none; stroke-dashoffset: 0pt; stroke-opacity: 1;" />
    </g>
    <g
       transform="translate(465.052, 231.609)"
       id="g2499">
      <g
         transform="matrix(92.4729, 0, 0, 90.8441, -23.9059, -41.9362)"
         id="g2521" />
    </g>
  </g>
  <path
     d="m 20.673922,17.899219 c -1.652837,0.185766 -2.840466,1.681417 -2.651524,3.334254 l 1.24955,10.896658 c 0.08733,0.762114 0.465208,1.421027 0.995513,1.895761 0.195292,0.347714 0.462033,0.657324 0.816098,0.887546 l 6.308091,4.155115 v 8.403906 c 0,1.151111 0.930414,2.081527 2.081526,2.081527 1.147936,0 2.075176,-0.930416 2.075176,-2.081527 V 36.856832 c 0,-0.01588 -0.0032,-0.03175 -0.0032,-0.04286 0.0064,-0.843089 -0.396935,-1.67189 -1.151112,-2.17044 L 25.240262,31.252111 24.254275,22.6545 h 8.66112 c 0.936767,0 1.692531,-0.760527 1.692531,-1.69253 0,-0.932004 -0.757351,-1.690943 -1.692531,-1.690943 H 23.542968 C 22.944391,18.33426 21.852025,17.761086 20.673922,17.899219 Z m 15.391549,1.544871 7.216277,-8.018085 -1.178103,-1.068549 -7.051152,7.837083 c 0.425515,0.331838 0.77323,0.757352 1.012978,1.249551 z m -8.572207,9.464517 4.028096,-4.448848 h -2.143448 l -3.064338,3.381886 z m 24.197153,14.188041 -1.438492,0.338189 c 0.285794,1.206682 -0.455681,2.413365 -1.640135,2.707096 l -37.950154,9.643931 0.360417,1.451195 37.940628,-9.637581 c 1.991026,-0.481084 3.208822,-2.497514 2.727736,-4.50283 z M 21.877429,40.845234 c 0.436629,0.347714 1.070137,0.273091 1.417852,-0.165125 0.347714,-0.433453 0.276266,-1.070137 -0.16195,-1.417852 l -6.536724,-5.185558 c -0.436629,-0.342951 -1.073312,-0.269916 -1.417852,0.165125 -0.347714,0.439804 -0.276266,1.076488 0.16195,1.421027 z M 20.546903,17.030726 c 2.12122,-0.02223 3.832804,-1.778269 3.829629,-3.926481 0,-2.145036 -1.733812,-3.8613829 -3.855033,-3.8407424 -2.124395,0.015875 -3.84868,1.7719184 -3.835979,3.9201294 0.0063,2.141862 1.727461,3.862971 3.861383,3.847094 z"
     id="path21597"
     style="stroke-width:1.58774" />
</svg>
