<?xml version="1.0" encoding="UTF-8" standalone="no"?>
<svg
   version="1.0"
   width="62.999817"
   height="63.053391"
   id="svg2"
   inkscape:version="1.1.1 (3bf5ae0d25, 2021-09-20)"
   sodipodi:docname="Pictogram_Tow_Lift_0.svg"
   xmlns:inkscape="http://www.inkscape.org/namespaces/inkscape"
   xmlns:sodipodi="http://sodipodi.sourceforge.net/DTD/sodipodi-0.dtd"
   xmlns="http://www.w3.org/2000/svg"
   xmlns:svg="http://www.w3.org/2000/svg"
   xmlns:rdf="http://www.w3.org/1999/02/22-rdf-syntax-ns#"
   xmlns:cc="http://creativecommons.org/ns#"
   xmlns:dc="http://purl.org/dc/elements/1.1/">
  <!-- ... (metadata and namedview elements remain unchanged) -->
  <defs
     id="defs4">
    <!-- ... (perspective element remains unchanged) -->
  </defs>
  <g
     transform="translate(-465.643, -232.264)"
     id="layer1">
    <g
       transform="matrix(2.07162, 0, 0, 2.07162, 221.743, 576.398)"
       id="g6613">
      <path
         d="M 0.49666329,0.92178989 L 0.49582996,0.92137323 L 0.49624662,0.92137323 C 0.49041333,0.91472397 0.48708002,0.90678999 0.48708002,0.89847407 L 0.48749668,0.89847407 L 0.48708002,0.67137483 L 0.32583105,0.72595782 L 0.32583105,0.7122079 L 0.66166223,0.59845863 L 0.66166223,0.61264257 L 0.50082993,0.66679153 L 0.50082993,0.89137342 L 0.50124659,0.89137342 C 0.50082993,0.90678999 0.51291318,0.91930727 0.52832975,0.91930727 L 0.52874642,0.91930727 L 0.59916263,0.91930727 L 0.59916263,0.93303982 L 0.52291312,0.93303982 L 0.52332978,0.93303982 C 0.51291318,0.93303982 0.50291325,0.92972387 0.49666329,0.92178989 L 0.49707995,0.92178989 L 0.49666329,0.92178989 z"
         id="path68"
         style="font-style: normal; font-variant: normal; font-weight: normal; font-stretch: normal; letter-spacing: normal; word-spacing: normal; text-anchor: start; fill: rgb(255, 255, 255); fill-opacity: 1; stroke: rgb(255, 255, 255); stroke-width: 0pt; stroke-linecap: round; stroke-linejoin: round; stroke-miterlimit: 10.433; stroke-dasharray: none; stroke-dashoffset: 0pt; stroke-opacity: 1;" />
      <!-- ... (other path elements remain unchanged) -->
    </g>
    <g
       transform="translate(465.052, 231.609)"
       id="g2499">
      <g
         transform="matrix(92.4729, 0, 0, 90.8441, -23.9059, -41.9362)"
         id="g2521" />
    </g>
  </g>
  <path
     d="m 20.673922,17.899219 c -1.652837,0.185766 -2.840466,1.681417 -2.651524,3.334254 l 1.24955,10.896658 c 0.08733,0.762114 0.465208,1.421027 0.995513,1.895761 0.195292,0.347714 0.462033,0.657324 0.816098,0.887546 l 6.308091,4.155115 v 8.403906 c 0,1.151111 0.930414,2.081527 2.081526,2.081527 1.147936,0 2.075176,-0.930416 2.075176,-2.081527 V 36.856832 c 0,-0.01588 -0.0032,-0.03175 -0.0032,-0.04286 0.0064,-0.843089 -0.396935,-1.67189 -1.151112,-2.17044 L 25.240262,31.252111 24.254275,22.6545 h 8.66112 c 0.936767,0 1.692531,-0.760527 1.692531,-1.69253 0,-0.932004 -0.757351,-1.690943 -1.692531,-1.690943 H 23.542968 C 22.944391,18.33426 21.852025,17.761086 20.673922,17.899219 Z m 15.391549,1.544871 7.216277,-8.018085 -1.178103,-1.068549 -7.051152,7.837083 c 0.425515,0.331838 0.77323,0.757352 1.012978,1.249551 z m -8.572207,9.464517 4.028096,-4.448848 h -2.143448 l -3.064338,3.381886 z m 24.197153,14.188041 -1.438492,0.338189 c 0.285794,1.206682 -0.455681,2.413365 -1.640135,2.707096 l -37.950154,9.643931 0.360417,1.451195 37.940628,-9.637581 c 1.991026,-0.481084 3.208822,-2.497514 2.727736,-4.50283 z M 21.877429,40.845234 c 0.436629,0.347714 1.070137,0.273091 1.417852,-0.165125 0.347714,-0.433453 0.276266,-1.070137 -0.16195,-1.417852 l -6.536724,-5.185558 c -0.436629,-0.342951 -1.073312,-0.269916 -1.417852,0.165125 -0.347714,0.439804 -0.276266,1.076488 0.16195,1.421027 z M 20.546903,17.030726 c 2.12122,-0.02223 3.832804,-1.778269 3.829629,-3.926481 0,-2.145036 -1.733812,-3.8613829 -3.855033,-3.8407424 -2.124395,0.015875 -3.84868,1.7719184 -3.835979,3.9201294 0.0063,2.141862 1.727461,3.862971 3.861383,3.847094 z"
     id="path21597"
     style="stroke-width:1.58774; fill: rgb(255, 255, 255);" />
</svg>
