<?xml version="1.0" encoding="UTF-8" standalone="no"?>
<!-- Created with Inkscape (http://www.inkscape.org/) -->
<svg
   xmlns:svg="http://www.w3.org/2000/svg"
   xmlns="http://www.w3.org/2000/svg"
   xmlns:sodipodi="http://inkscape.sourceforge.net/DTD/sodipodi-0.dtd"
   xmlns:inkscape="http://www.inkscape.org/namespaces/inkscape"
   version="1.0"
   width="600"
   height="600"
   viewBox="0 0 1 1"
   id="svg2"
   sodipodi:version="0.32"
   inkscape:version="0.43"
   sodipodi:docname="skilift.svg"
   sodipodi:docbase="Y:\wiki\roadsigns">
  <sodipodi:namedview
     inkscape:window-height="540"
     inkscape:window-width="756"
     inkscape:pageshadow="2"
     inkscape:pageopacity="0.0"
     borderopacity="1.0"
     bordercolor="#666666"
     pagecolor="#ffffff"
     id="base"
     inkscape:zoom="0.62333333"
     inkscape:cx="300"
     inkscape:cy="300"
     inkscape:window-x="132"
     inkscape:window-y="132"
     inkscape:current-layer="svg2" />
  <defs
     id="defs3545" />
  <g
     transform="matrix(2.071625,0,0,2.071625,-0.614044,-1.178298)"
     id="g6613">
    <path
       d="M 0.49666329,0.92178989 L 0.49582996,0.92137323 L 0.49624662,0.92137323 C 0.49041333,0.91472397 0.48708002,0.90678999 0.48708002,0.89847407 L 0.48749668,0.89847407 L 0.48708002,0.67137483 L 0.32583105,0.72595782 L 0.32583105,0.7122079 L 0.66166223,0.59845863 L 0.66166223,0.61264257 L 0.50082993,0.66679153 L 0.50082993,0.89137342 L 0.50124659,0.89137342 C 0.50082993,0.90678999 0.51291318,0.91930727 0.52832975,0.91930727 L 0.52874642,0.91930727 L 0.59916263,0.91930727 L 0.59916263,0.93303982 L 0.52291312,0.93303982 L 0.52332978,0.93303982 C 0.51291318,0.93303982 0.50291325,0.92972387 0.49666329,0.92178989 L 0.49707995,0.92178989 L 0.49666329,0.92178989 z "
       style="font-style:normal;font-variant:normal;font-weight:normal;font-stretch:normal;letter-spacing:normal;word-spacing:normal;text-anchor:start;fill:#1e1916;fill-opacity:1;stroke:#1e1916;stroke-width:0;stroke-linecap:round;stroke-linejoin:round;stroke-miterlimit:10.43299961;stroke-dasharray:none;stroke-dashoffset:0;stroke-opacity:1"
       id="path68" />
    <path
       d="M 0.48874667,1.0172129 L 0.71916186,0.97678954 L 0.71957853,0.97678954 C 0.72832847,0.97514025 0.7349951,0.96972362 0.74207838,0.96262297 C 0.74874501,0.95095637 0.75124499,0.96014034 0.74874501,0.96680697 C 0.74666169,0.97928953 0.73624509,0.98803947 0.72416183,0.99012279 L 0.7245785,0.99012279 L 0.49124666,1.0313795 L 0.48874667,1.0172129 L 0.48916334,1.0172129"
       style="font-style:normal;font-variant:normal;font-weight:normal;font-stretch:normal;letter-spacing:normal;word-spacing:normal;text-anchor:start;fill:#1e1916;fill-opacity:1;stroke:#1e1916;stroke-width:0;stroke-linecap:round;stroke-linejoin:round;stroke-miterlimit:10.43299961;stroke-dasharray:none;stroke-dashoffset:0;stroke-opacity:1"
       id="path70" />
    <path
       d="M 0.56874616,0.87804017 L 0.62374581,0.88179015 L 0.62416247,0.88179015 C 0.63249575,0.88264084 0.63916238,0.88970677 0.63874571,0.89887337 L 0.63916238,0.89887337 L 0.63416241,0.98637281 L 0.61249588,0.98637281 L 0.60832924,0.91264065 L 0.52916308,0.91264065 L 0.52957974,0.91264065 C 0.52041314,0.91264065 0.50957987,0.90889067 0.50957987,0.89847407 L 0.50999654,0.89847407 L 0.50916321,0.87345687 L 0.50916321,0.80512397 L 0.50957987,0.80512397 C 0.50916321,0.78804075 0.52499644,0.77639152 0.54124634,0.77679082 L 0.541663,0.77679082 L 0.54416298,0.77679082 L 0.54457965,0.77679082 C 0.55916289,0.77722485 0.57416279,0.78720742 0.57332946,0.80304065 L 0.57374613,0.80304065 L 0.56874616,0.87804017 L 0.56916282,0.87804017"
       style="font-style:normal;font-variant:normal;font-weight:normal;font-stretch:normal;letter-spacing:normal;word-spacing:normal;text-anchor:start;fill:#1e1916;fill-opacity:1;stroke:#1e1916;stroke-width:0;stroke-linecap:round;stroke-linejoin:round;stroke-miterlimit:10.43299961;stroke-dasharray:none;stroke-dashoffset:0;stroke-opacity:1"
       id="path72" />
    <path
       d="M 0.541663,0.71554122 L 0.54305188,0.71557594 L 0.54444076,0.7156801 L 0.54579492,0.71585371 L 0.54713171,0.71607941 L 0.54843379,0.71637454 L 0.5497185,0.71672176 L 0.55098586,0.71713843 L 0.55221849,0.71760717 L 0.5534164,0.718128 L 0.55457958,0.71870092 L 0.55572541,0.71934327 L 0.55681915,0.72002035 L 0.55787817,0.72076688 L 0.55890247,0.72154812 L 0.55989205,0.72238145 L 0.56082954,0.7232495 L 0.56171496,0.72416963 L 0.56256564,0.72514185 L 0.56338161,0.72614879 L 0.56412813,0.72719045 L 0.56482257,0.72826683 L 0.56548229,0.72937793 L 0.56607257,0.73054112 L 0.56662812,0.73172167 L 0.56709687,0.73293694 L 0.56753089,0.73418693 L 0.56789547,0.73545428 L 0.56819061,0.73675636 L 0.56843366,0.73809315 L 0.56860727,0.73944731 L 0.56871144,0.74081883 L 0.56874616,0.74222507 C 0.56874616,0.75679095 0.5566629,0.76889157 0.541663,0.76889157 C 0.52707976,0.76889157 0.5149965,0.75679095 0.5149965,0.74222507 C 0.5149965,0.72722517 0.52707976,0.71554122 0.541663,0.71554122 L 0.54207966,0.71554122 L 0.541663,0.71554122 z "
       style="font-style:normal;font-variant:normal;font-weight:normal;font-stretch:normal;letter-spacing:normal;word-spacing:normal;text-anchor:start;fill:#1e1916;fill-opacity:1;stroke:#1e1916;stroke-width:0;stroke-linecap:round;stroke-linejoin:round;stroke-miterlimit:10.43299961;stroke-dasharray:none;stroke-dashoffset:0;stroke-opacity:1"
       id="path74" />
    <path
       d="M 0.51666316,0.58889272 L 0.51789579,0.58891008 L 0.51912842,0.58901425 L 0.52034369,0.5891705 L 0.5215416,0.58937883 L 0.52272215,0.58963924 L 0.52388534,0.5899691 L 0.5250138,0.59035104 L 0.5261249,0.59078507 L 0.52721865,0.59127118 L 0.52826031,0.59180937 L 0.52930197,0.59239964 L 0.53029154,0.593042 L 0.53126376,0.59371908 L 0.53220126,0.59444824 L 0.53308667,0.59521212 L 0.53395472,0.59601073 L 0.53477068,0.59686142 L 0.53555193,0.59776419 L 0.53628109,0.59868432 L 0.53697553,0.59963918 L 0.53763525,0.60064612 L 0.53822552,0.60167042 L 0.53878107,0.60272944 L 0.53928454,0.60382318 L 0.53971857,0.60495164 L 0.54011787,0.60609747 L 0.54044773,0.60726066 L 0.54072551,0.60845857 L 0.5409512,0.6096912 L 0.54110745,0.61092383 L 0.54121161,0.61219118 L 0.54124634,0.6134759 C 0.54124634,0.62680914 0.52999641,0.63805907 0.51666316,0.63805907 C 0.50291325,0.63805907 0.49207998,0.62680914 0.49207998,0.6134759 C 0.49207998,0.59970862 0.50291325,0.58889272 0.51666316,0.58889272 L 0.51707982,0.58889272 L 0.51666316,0.58889272 z "
       style="font-style:normal;font-variant:normal;font-weight:normal;font-stretch:normal;letter-spacing:normal;word-spacing:normal;text-anchor:start;fill:#1e1916;fill-opacity:1;stroke:#1e1916;stroke-width:0;stroke-linecap:round;stroke-linejoin:round;stroke-miterlimit:10.43299961;stroke-dasharray:none;stroke-dashoffset:0;stroke-opacity:1"
       id="path76" />
    <path
       d="M 0.45708021,0.61012522 L 0.45831284,0.61015995 L 0.45954547,0.61026411 L 0.46076074,0.610403 L 0.46195865,0.61062869 L 0.4631392,0.61088911 L 0.46430238,0.61121897 L 0.46543085,0.61160091 L 0.46654195,0.61203493 L 0.46761834,0.61252104 L 0.46867736,0.61305923 L 0.46971902,0.61364951 L 0.47070859,0.61429186 L 0.47168081,0.61496894 L 0.4726183,0.6156981 L 0.47350371,0.61646199 L 0.47437176,0.61726059 L 0.47518773,0.61811128 L 0.47596898,0.61901406 L 0.47669814,0.61993419 L 0.47739258,0.62088904 L 0.4780523,0.62189598 L 0.47864257,0.62292028 L 0.47919812,0.6239793 L 0.47970159,0.62507304 L 0.48013562,0.62620151 L 0.48053492,0.62734734 L 0.48086478,0.62851052 L 0.48114255,0.62970843 L 0.48136825,0.63094106 L 0.4815245,0.63217369 L 0.48162866,0.63344105 L 0.48166338,0.6347084 C 0.48166338,0.64804165 0.47041346,0.65929158 0.45708021,0.65929158 C 0.4433303,0.65929158 0.43249703,0.64804165 0.43249703,0.6347084 C 0.43249703,0.62097585 0.4433303,0.61012522 0.45708021,0.61012522 L 0.45749687,0.61012522 L 0.45708021,0.61012522 z "
       style="font-style:normal;font-variant:normal;font-weight:normal;font-stretch:normal;letter-spacing:normal;word-spacing:normal;text-anchor:start;fill:#1e1916;fill-opacity:1;stroke:#1e1916;stroke-width:0;stroke-linecap:round;stroke-linejoin:round;stroke-miterlimit:10.43299961;stroke-dasharray:none;stroke-dashoffset:0;stroke-opacity:1"
       id="path78" />
  </g>
</svg>
